<svg width="250" height="250" viewBox="0 0 250 250" fill="none" xmlns="http://www.w3.org/2000/svg">
<g clip-path="url(#clip0)">
<path d="M124.995 89.4286L113.497 100.166L97.123 96.2031L104.091 89.4286H124.995Z" fill="#F8BF02"/>
<path d="M152.867 96.2031L136.492 100.166L124.995 89.4286H145.899L152.867 96.2031Z" fill="#F8BF02"/>
<path d="M131.964 89.4289H118.027L121.511 69.1054H128.479L131.964 89.4289Z" fill="#F8BF02"/>
<path d="M142.415 160.562L124.995 163.949L107.575 160.562L104.091 147.013H145.899L142.415 160.562Z" fill="#F8BF02"/>
<path d="M76.2193 143.625C76.2193 147.366 73.0994 150.4 69.2513 150.4C65.4032 150.4 62.2832 147.366 62.2832 143.625C62.2832 139.884 65.4032 136.851 69.2513 136.851C73.0994 136.851 76.2193 139.884 76.2193 143.625Z" fill="#F8BF02"/>
<path d="M187.709 143.625C187.709 147.366 184.589 150.4 180.741 150.4C176.892 150.4 173.772 147.366 173.772 143.625C173.772 139.884 176.892 136.851 180.741 136.851C184.589 136.851 187.709 139.884 187.709 143.625Z" fill="#F8BF02"/>
<path d="M101.344 144.928C100.684 145.752 100.449 146.823 100.709 147.836L104.193 161.385C104.522 162.653 105.571 163.624 106.89 163.88L124.31 167.268C124.761 167.359 125.225 167.359 125.676 167.268L143.096 163.88C144.416 163.624 145.466 162.653 145.793 161.385L149.277 147.836C149.539 146.823 149.304 145.75 148.644 144.928C147.984 144.106 146.972 143.625 145.898 143.625H104.09C103.016 143.625 102.004 144.106 101.344 144.928V144.928ZM141.434 150.399L139.568 157.662L124.994 160.493L110.42 157.662L108.552 150.399H141.434Z" fill="#171717"/>
<path d="M231.99 131.059L218.054 117.51C217.388 116.886 216.504 116.534 215.58 116.527H149.453C148.094 114.394 146.561 111.446 144.958 108.363C143.914 106.365 142.834 104.333 141.787 102.368L153.703 99.4899C154.917 99.1938 155.873 98.2891 156.212 97.1181C156.552 95.9389 156.22 94.6736 155.341 93.7987L148.373 87.0242C147.708 86.4006 146.823 86.0484 145.899 86.0417H134.925L131.927 68.5629C131.653 66.9189 130.192 65.7132 128.479 65.7182H121.511C119.798 65.7132 118.335 66.9189 118.061 68.5629L115.065 86.0417H104.091C103.167 86.0484 102.281 86.4006 101.617 87.0242L94.6492 93.7987C93.7697 94.6736 93.4379 95.9389 93.7782 97.1181C94.115 98.2891 95.0728 99.1938 96.2857 99.4899L108.203 102.368C107.156 104.333 106.076 106.365 105.032 108.363C103.429 111.446 101.896 114.359 100.537 116.527H34.41C33.4863 116.534 32.6 116.886 31.9365 117.51L18.0003 131.059C17.1242 131.937 16.7925 133.199 17.1293 134.378C17.473 135.557 18.4461 136.464 19.6726 136.75L59.0075 145.658C59.8071 149.541 62.8658 152.614 66.833 153.517C70.8002 154.422 74.946 152.991 77.4382 149.857L90.8504 152.905C94.1609 170.622 108.829 184.272 124.995 184.272C141.231 184.272 155.933 170.555 159.138 152.905L172.552 149.857C175.044 152.991 179.19 154.422 183.155 153.517C187.122 152.614 190.183 149.541 190.982 145.658L230.317 136.75C231.544 136.464 232.517 135.557 232.861 134.378C233.198 133.199 232.866 131.937 231.99 131.059ZM144.47 92.8163L146.039 94.3743L138.164 96.2713C137.363 95.0524 136.561 93.8996 135.726 92.8163H144.47ZM124.473 72.4927H125.517L127.851 86.0417H122.139L124.473 72.4927ZM103.951 94.3743L105.52 92.8163H114.264C113.429 93.8996 112.626 95.0524 111.824 96.2713L103.951 94.3743ZM69.2504 147.012C67.3264 147.012 65.7664 145.496 65.7664 143.625C65.7664 141.755 67.3264 140.238 69.2504 140.238C71.1745 140.238 72.7345 141.755 72.7345 143.625C72.7345 145.496 71.1745 147.012 69.2504 147.012ZM90.1546 145.793L79.6668 143.422C79.5971 138.781 76.2865 134.783 71.6389 133.725C66.9912 132.668 62.199 134.821 60.0181 138.951L27.3722 131.533L35.839 123.302H96.2517C96.3555 123.098 96.495 122.929 96.6004 122.726C92.5533 129.79 90.3401 137.709 90.1546 145.793ZM152.588 149.586C152.546 149.799 152.524 150.014 152.519 150.231C150.394 165.507 138.303 177.498 124.995 177.498C111.687 177.498 99.5962 165.507 97.4357 150.128C97.4425 149.946 97.4306 149.766 97.4017 149.586C97.1874 148.344 97.0938 147.085 97.1227 145.827C97.3592 137.233 100.209 128.9 105.311 121.879C107.514 118.512 109.504 115.015 111.268 111.411C114.647 104.908 120.953 92.8163 124.995 92.8163C129.037 92.8163 135.342 104.908 138.722 111.411C140.478 115.009 142.468 118.494 144.679 121.844C149.778 128.882 152.626 137.224 152.867 145.827C152.896 147.085 152.803 148.344 152.588 149.586ZM180.74 147.012C178.816 147.012 177.256 145.496 177.256 143.625C177.256 141.755 178.816 140.238 180.74 140.238C182.664 140.238 184.224 141.755 184.224 143.625C184.224 145.496 182.664 147.012 180.74 147.012ZM189.972 138.951C187.791 134.821 182.999 132.668 178.351 133.725C173.702 134.783 170.391 138.781 170.322 143.422L159.835 145.793C159.658 137.692 157.432 129.759 153.356 122.691C153.495 122.888 153.623 123.092 153.738 123.302H214.151L222.618 131.533L189.972 138.951Z" fill="#171717"/>
<path d="M51.83 163.949H23.9577C22.0336 163.949 20.4736 165.465 20.4736 167.336C20.4736 169.207 22.0336 170.723 23.9577 170.723H51.83C53.754 170.723 55.314 169.207 55.314 167.336C55.314 165.465 53.754 163.949 51.83 163.949Z" fill="#171717"/>
<path d="M65.7659 163.949H62.2819C60.3578 163.949 58.7979 165.465 58.7979 167.336C58.7979 169.207 60.3578 170.723 62.2819 170.723H65.7659C67.69 170.723 69.25 169.207 69.25 167.336C69.25 165.465 67.69 163.949 65.7659 163.949Z" fill="#171717"/>
<path d="M90.1545 163.949H76.2184C74.2944 163.949 72.7344 165.465 72.7344 167.336C72.7344 169.207 74.2944 170.723 76.2184 170.723H90.1545C92.0786 170.723 93.6386 169.207 93.6386 167.336C93.6386 165.465 92.0786 163.949 90.1545 163.949Z" fill="#171717"/>
<path d="M229.517 163.949H163.32C161.396 163.949 159.836 165.465 159.836 167.336C159.836 169.207 161.396 170.723 163.32 170.723H229.517C231.441 170.723 233.001 169.207 233.001 167.336C233.001 165.465 231.441 163.949 229.517 163.949Z" fill="#171717"/>
</g>
<defs>
<clipPath id="clip0">
<rect width="216" height="210" fill="white" transform="translate(17 20)"/>
</clipPath>
</defs>
</svg>
