<svg width="250" height="250" viewBox="0 0 250 250" fill="none" xmlns="http://www.w3.org/2000/svg">
<g clip-path="url(#clip0)">
<path d="M92.2313 121.387H110.548L96.0965 45.5161H38.29V59.9677H96.0965H38.29V110.548H70.9508L92.2313 121.387Z" fill="#F8BF02"/>
<path d="M186.419 171.968C186.419 154.009 171.862 139.452 153.903 139.452C135.944 139.452 121.387 154.009 121.387 171.968C121.387 189.926 135.944 204.484 153.903 204.484C171.862 204.484 186.419 189.926 186.419 171.968ZM146.677 171.968C146.677 167.977 149.912 164.742 153.903 164.742C157.893 164.742 161.129 167.977 161.129 171.968C161.129 175.958 157.893 179.193 153.903 179.193C149.912 179.193 146.677 175.958 146.677 171.968Z" fill="#F8BF02"/>
<path d="M27.4507 164.052C17.8557 169.523 13.8847 181.316 18.2191 191.475C22.5536 201.635 33.8139 206.932 44.4039 203.792C54.9921 200.652 61.5458 190.073 59.6423 179.194C58.4709 172.192 53.9389 166.21 47.514 163.188C41.0891 160.166 33.5916 160.489 27.4507 164.052ZM41.9024 182.806C41.9024 184.802 40.2847 186.419 38.2895 186.419C36.2942 186.419 34.6766 184.802 34.6766 182.806C34.6766 180.811 36.2942 179.194 38.2895 179.194C40.2847 179.194 41.9024 180.811 41.9024 182.806Z" fill="#F8BF02"/>
<path d="M161.129 171.968C161.129 175.958 157.894 179.194 153.904 179.194C149.913 179.194 146.678 175.958 146.678 171.968C146.678 167.977 149.913 164.742 153.904 164.742C157.894 164.742 161.129 167.977 161.129 171.968Z" fill="#F8BF02"/>
<path d="M41.9035 182.806C41.9035 184.802 40.2858 186.419 38.2906 186.419C36.2954 186.419 34.6777 184.802 34.6777 182.806C34.6777 180.811 36.2954 179.194 38.2906 179.194C40.2858 179.194 41.9035 180.811 41.9035 182.806Z" fill="#F8BF02"/>
<path d="M157.516 136.022V121.387C157.516 119.392 155.898 117.774 153.903 117.774H113.54L99.6438 44.8404C99.3192 43.1363 97.8303 41.9032 96.0961 41.9032H38.2897C36.2945 41.9032 34.6768 43.5209 34.6768 45.5161V106.935H27.451C25.4558 106.935 23.8381 108.553 23.8381 110.548V162.083C13.9837 168.944 10.3126 181.79 15.0546 192.823C19.7965 203.856 31.6425 210.034 43.4021 207.606C55.1634 205.177 63.5941 194.815 63.58 182.806H119.439C124.86 200.051 142.191 210.634 160.006 207.582C177.822 204.528 190.64 188.78 190.012 170.713C189.384 152.649 175.501 137.829 157.516 136.022V136.022ZM93.1077 49.129L94.4855 56.3548H41.9026V49.129H93.1077ZM41.9026 63.5806H95.8615L106.183 117.774H93.0972L72.5911 107.329C72.083 107.07 71.5203 106.934 70.9505 106.935H41.9026V63.5806ZM38.2897 200.871C28.3136 200.871 20.2252 192.782 20.2252 182.806C20.2252 172.83 28.3136 164.742 38.2897 164.742C48.2658 164.742 56.3542 172.83 56.3542 182.806C56.3419 192.779 48.2622 200.859 38.2897 200.871ZM62.5145 175.581C60.604 169.152 56.2148 163.749 50.3139 160.563C44.4129 157.375 37.487 156.669 31.0639 158.599V114.161H70.0825L90.5904 124.607C90.6221 124.624 90.6662 124.607 90.698 124.631C91.176 124.866 91.6982 124.989 92.231 124.993H150.29V136.015C140.751 136.966 131.983 141.671 125.918 149.092C119.852 156.514 116.989 166.044 117.957 175.581H62.5145ZM153.903 200.871C137.939 200.871 124.999 187.931 124.999 171.968C124.999 156.004 137.939 143.064 153.903 143.064C169.866 143.064 182.806 156.004 182.806 171.968C182.788 187.922 169.857 200.853 153.903 200.871Z" fill="#171717"/>
<path d="M233.387 168.355H203.624L175.443 66.232C174.912 64.3092 172.922 63.1801 170.999 63.7111C169.076 64.2421 167.947 66.2303 168.478 68.1549L197.381 172.929C197.813 174.497 199.242 175.584 200.87 175.581H233.387C235.382 175.581 236.999 173.963 236.999 171.968C236.999 169.972 235.382 168.355 233.387 168.355V168.355Z" fill="#171717"/>
<path d="M153.902 161.129C147.917 161.129 143.063 165.982 143.063 171.968C143.063 177.953 147.917 182.806 153.902 182.806C159.888 182.806 164.741 177.953 164.741 171.968C164.741 165.982 159.888 161.129 153.902 161.129ZM153.902 175.581C151.907 175.581 150.289 173.963 150.289 171.968C150.289 169.972 151.907 168.355 153.902 168.355C155.897 168.355 157.515 169.972 157.515 171.968C157.515 173.963 155.897 175.581 153.902 175.581Z" fill="#171717"/>
<path d="M45.5151 182.806C45.5151 186.797 42.2797 190.032 38.2893 190.032C34.2989 190.032 31.0635 186.797 31.0635 182.806C31.0635 178.816 34.2989 175.581 38.2893 175.581C42.2797 175.581 45.5151 178.816 45.5151 182.806Z" fill="#171717"/>
<path d="M121.386 132.226C121.386 130.231 119.768 128.613 117.773 128.613H88.8697C86.8745 128.613 85.2568 130.231 85.2568 132.226C85.2568 134.221 86.8745 135.839 88.8697 135.839H117.773C119.768 135.839 121.386 134.221 121.386 132.226Z" fill="#171717"/>
<path d="M121.386 143.064C121.386 141.069 119.769 139.452 117.773 139.452H103.322C101.327 139.452 99.709 141.069 99.709 143.064C99.709 145.06 101.327 146.677 103.322 146.677H117.773C119.769 146.677 121.386 145.06 121.386 143.064Z" fill="#171717"/>
</g>
<defs>
<clipPath id="clip0">
<rect width="224" height="224" fill="white" transform="translate(13 13)"/>
</clipPath>
</defs>
</svg>
