<svg width="250" height="250" viewBox="0 0 250 250" fill="none" xmlns="http://www.w3.org/2000/svg">
<path d="M54.125 189.125C48.5335 189.125 44 184.591 44 179H64.25C64.25 184.591 59.7165 189.125 54.125 189.125Z" fill="#F8BF02"/>
<path d="M195.875 158.75C184.692 158.75 175.625 167.817 175.625 179L162.125 131.75H216.125V179C216.125 167.817 207.058 158.75 195.875 158.75Z" fill="#F8BF02"/>
<path d="M44 179C44 184.591 48.5335 189.125 54.125 189.125C59.7165 189.125 64.25 184.591 64.25 179H74.375C74.375 190.183 65.308 199.25 54.125 199.25C42.942 199.25 33.875 190.183 33.875 179H44Z" fill="#F8BF02"/>
<path d="M195.875 158.75C207.058 158.75 216.125 167.817 216.125 179C216.125 190.183 207.058 199.25 195.875 199.25C184.692 199.25 175.625 190.183 175.625 179C175.625 167.817 184.692 158.75 195.875 158.75ZM195.875 189.125C201.466 189.125 206 184.591 206 179C206 173.409 201.466 168.875 195.875 168.875C190.284 168.875 185.75 173.409 185.75 179C185.75 184.591 190.284 189.125 195.875 189.125Z" fill="#F8BF02"/>
<path d="M185.75 179C185.75 184.591 190.284 189.125 195.875 189.125C201.466 189.125 206 184.591 206 179C206 173.409 201.466 168.875 195.875 168.875C190.284 168.875 185.75 173.409 185.75 179Z" fill="#F8BF02"/>
<path d="M162.125 135.801V179H74.375C74.375 167.817 65.308 158.75 54.125 158.75C42.942 158.75 33.875 167.817 33.875 179H20.375V131.75H162.125V135.801Z" fill="#F8BF02"/>
<path d="M54.125 158.75C65.308 158.75 74.375 167.817 74.375 179H64.25C64.25 173.409 59.7165 168.875 54.125 168.875C48.5335 168.875 44 173.409 44 179H33.875C33.875 167.817 42.942 158.75 54.125 158.75Z" fill="#F8BF02"/>
<path d="M54.125 168.875C59.7165 168.875 64.25 173.409 64.25 179H44C44 173.409 48.5335 168.875 54.125 168.875Z" fill="#F8BF02"/>
<path d="M162.125 143.9V131.75L175.625 179H162.125V143.9Z" fill="#F8BF02"/>
<path d="M216.125 131.75C223.58 131.75 229.625 137.795 229.625 145.25V179H216.125V131.75Z" fill="#F8BF02"/>
<path d="M162.125 131.75V91.25H199.25L216.125 131.75H162.125ZM172.25 121.625H200.938L192.5 101.375H172.25V121.625Z" fill="#F8BF02"/>
<path d="M67.625 87.875L54.125 98V50.75H81.125V98L67.625 87.875Z" fill="#F8BF02"/>
<path d="M108.125 87.875H152V131.75H108.125V87.875ZM118.25 114.875H141.875V101.375H118.25V114.875Z" fill="white"/>
<path d="M141.875 101.375H118.25V114.875H141.875V101.375Z" fill="#F8BF02"/>
<path d="M54.125 165.5C61.5803 165.5 67.625 171.545 67.625 179C67.625 186.455 61.5803 192.5 54.125 192.5C46.6697 192.5 40.625 186.455 40.625 179C40.625 171.545 46.6697 165.5 54.125 165.5ZM54.125 185.75C57.8527 185.75 60.875 182.728 60.875 179C60.875 175.272 57.8527 172.25 54.125 172.25C50.3973 172.25 47.375 175.272 47.375 179C47.375 182.728 50.3973 185.75 54.125 185.75Z" fill="#171717"/>
<path d="M195.875 165.5C203.33 165.5 209.375 171.545 209.375 179C209.375 186.455 203.33 192.5 195.875 192.5C188.42 192.5 182.375 186.455 182.375 179C182.375 171.545 188.42 165.5 195.875 165.5ZM195.875 185.75C199.603 185.75 202.625 182.728 202.625 179C202.625 175.272 199.603 172.25 195.875 172.25C192.147 172.25 189.125 175.272 189.125 179C189.125 182.728 192.147 185.75 195.875 185.75Z" fill="#171717"/>
<path d="M20.375 128.375H23.75V50.75C23.75 48.8862 25.2612 47.375 27.125 47.375H108.125C109.989 47.375 111.5 48.8862 111.5 50.75V84.5H152C153.864 84.5 155.375 86.0112 155.375 87.875V128.375H158.75V91.25C158.75 89.3862 160.261 87.875 162.125 87.875H199.25C200.613 87.875 201.841 88.694 202.365 89.9514L218.488 128.611C226.791 129.774 232.975 136.865 233 145.25V179C233 180.864 231.489 182.375 229.625 182.375H219.23C217.562 193.991 207.61 202.615 195.875 202.615C184.14 202.615 174.188 193.991 172.52 182.375H77.4797C75.812 193.991 65.86 202.615 54.125 202.615C42.3899 202.615 32.438 193.991 30.7703 182.375H20.375C18.5112 182.375 17 180.864 17 179V131.75C17 129.886 18.5112 128.375 20.375 128.375ZM57.5 54.125V91.25L65.5997 85.1757C66.7994 84.2742 68.4506 84.2742 69.6503 85.1757L77.75 91.25V54.125H57.5ZM104.75 54.125H84.5V98C84.5 99.2788 83.7782 100.447 82.6345 101.019C81.4908 101.591 80.123 101.467 79.0997 100.699L67.625 92.0938L56.1503 100.699C55.1269 101.467 53.7591 101.591 52.6155 101.019C51.4718 100.447 50.75 99.2788 50.75 98V54.125H30.5V128.375H104.75V54.125ZM148.625 91.25H111.5V128.375H148.625V91.25ZM196.999 94.625H165.5V128.375H211.062L196.999 94.625ZM226.25 145.25C226.25 139.659 221.716 135.125 216.125 135.125H165.5V175.625H172.52C174.188 164.009 184.14 155.385 195.875 155.385C207.61 155.385 217.562 164.009 219.23 175.625H226.25V145.25ZM195.875 195.875C205.194 195.875 212.75 188.319 212.75 179C212.75 169.681 205.194 162.125 195.875 162.125C186.556 162.125 179 169.681 179 179C179.012 188.316 186.559 195.863 195.875 195.875ZM54.125 195.875C63.4441 195.875 71 188.319 71 179C71 169.681 63.4441 162.125 54.125 162.125C44.8058 162.125 37.25 169.681 37.25 179C37.2615 188.316 44.8091 195.863 54.125 195.875ZM23.75 175.625H30.7703C32.438 164.009 42.3899 155.385 54.125 155.385C65.86 155.385 75.812 164.009 77.4797 175.625H158.75V135.125H23.75V175.625Z" fill="#171717"/>
<path d="M172.25 98H192.5C193.863 98 195.091 98.819 195.615 100.076L204.052 120.326C204.487 121.368 204.372 122.558 203.746 123.497C203.121 124.436 202.066 125 200.937 125H172.25C170.386 125 168.875 123.489 168.875 121.625V101.375C168.875 99.5112 170.386 98 172.25 98ZM175.625 118.25H195.875L190.249 104.75H175.625V118.25Z" fill="#171717"/>
<path d="M118.25 98H141.875C143.739 98 145.25 99.5112 145.25 101.375V114.875C145.25 116.739 143.739 118.25 141.875 118.25H118.25C116.386 118.25 114.875 116.739 114.875 114.875V101.375C114.875 99.5112 116.386 98 118.25 98ZM121.625 111.5H138.5V104.75H121.625V111.5Z" fill="#171717"/>
</svg>
