<svg width="250" height="250" viewBox="0 0 250 250" fill="none" xmlns="http://www.w3.org/2000/svg">
<path d="M73.4375 35.625V21.875H32.1875V228.125H183.438V21.875H142.188V35.625H169.688V214.375H45.9375V35.625H73.4375Z" fill="#F8BF02"/>
<path d="M94.0625 100.938L107.812 94.0625L121.562 100.938V66.5625H94.0625V100.938Z" fill="#F8BF02"/>
<path d="M83.75 149.062H131.875V162.812H83.75V149.062Z" fill="#F8BF02"/>
<path d="M197.188 66.5625H217.812V180H197.188V66.5625Z" fill="#F8BF02"/>
<path d="M183.438 18.4375H32.1875C31.2758 18.4375 30.4015 18.7997 29.7568 19.4443C29.1122 20.089 28.75 20.9633 28.75 21.875V228.125C28.75 229.037 29.1122 229.911 29.7568 230.556C30.4015 231.2 31.2758 231.562 32.1875 231.562H183.438C184.349 231.562 185.224 231.2 185.868 230.556C186.513 229.911 186.875 229.037 186.875 228.125V21.875C186.875 20.9633 186.513 20.089 185.868 19.4443C185.224 18.7997 184.349 18.4375 183.438 18.4375ZM76.875 25.3125H138.75V40.7812C138.749 42.1484 138.205 43.4593 137.239 44.426C136.272 45.3927 134.961 45.9364 133.594 45.9375H82.0312C80.6641 45.9364 79.3532 45.3927 78.3865 44.426C77.4197 43.4593 76.8761 42.1484 76.875 40.7812V25.3125ZM82.0312 52.8125H133.594C136.784 52.809 139.842 51.5403 142.097 49.2847C144.353 47.0292 145.621 43.9711 145.625 40.7812V39.0625H166.25V210.938H49.375V39.0625H70V40.7812C70.0035 43.9711 71.2722 47.0292 73.5278 49.2847C75.7833 51.5403 78.8414 52.809 82.0312 52.8125V52.8125ZM180 224.688H35.625V25.3125H70V32.1875H45.9375C45.0258 32.1875 44.1515 32.5497 43.5068 33.1943C42.8622 33.839 42.5 34.7133 42.5 35.625V214.375C42.5 215.287 42.8622 216.161 43.5068 216.806C44.1515 217.45 45.0258 217.812 45.9375 217.812H169.688C170.599 217.812 171.474 217.45 172.118 216.806C172.763 216.161 173.125 215.287 173.125 214.375V35.625C173.125 34.7133 172.763 33.839 172.118 33.1943C171.474 32.5497 170.599 32.1875 169.688 32.1875H145.625V25.3125H180V224.688Z" fill="#171717"/>
<path d="M137.031 63.125H78.5938C76.3152 63.1273 74.1307 64.0334 72.5196 65.6446C70.9084 67.2557 70.0023 69.4402 70 71.7188V130.156C70.0023 132.435 70.9084 134.619 72.5196 136.23C74.1307 137.842 76.3152 138.748 78.5938 138.75H137.031C139.31 138.748 141.494 137.842 143.105 136.23C144.717 134.619 145.623 132.435 145.625 130.156V71.7188C145.623 69.4402 144.717 67.2557 143.105 65.6446C141.494 64.0334 139.31 63.1273 137.031 63.125V63.125ZM97.5 70H118.125V95.3773L109.351 90.9859C108.873 90.7485 108.346 90.625 107.812 90.625C107.279 90.625 106.752 90.7485 106.274 90.9859L97.5 95.3773V70ZM138.75 130.156C138.75 130.612 138.569 131.049 138.247 131.372C137.924 131.694 137.487 131.875 137.031 131.875H78.5938C78.1379 131.875 77.7007 131.694 77.3784 131.372C77.0561 131.049 76.875 130.612 76.875 130.156V71.7188C76.875 71.2629 77.0561 70.8257 77.3784 70.5034C77.7007 70.1811 78.1379 70 78.5938 70H90.625V100.938C90.6246 101.524 90.7741 102.1 91.0593 102.613C91.3446 103.125 91.7561 103.555 92.2547 103.864C92.7533 104.172 93.3225 104.348 93.9082 104.374C94.4939 104.4 95.0765 104.276 95.6008 104.014L107.812 97.9039L120.024 104.014C120.548 104.276 121.131 104.4 121.717 104.374C122.302 104.348 122.872 104.172 123.37 103.864C123.869 103.555 124.28 103.125 124.566 102.613C124.851 102.1 125 101.524 125 100.938V70H137.031C137.487 70 137.924 70.1811 138.247 70.5034C138.569 70.8257 138.75 71.2629 138.75 71.7188V130.156Z" fill="#171717"/>
<path d="M135.312 162.812V149.062C135.312 148.151 134.95 147.276 134.306 146.632C133.661 145.987 132.787 145.625 131.875 145.625H83.75C82.8383 145.625 81.964 145.987 81.3193 146.632C80.6747 147.276 80.3125 148.151 80.3125 149.062V162.812C80.3125 163.724 80.6747 164.599 81.3193 165.243C81.964 165.888 82.8383 166.25 83.75 166.25H131.875C132.787 166.25 133.661 165.888 134.306 165.243C134.95 164.599 135.312 163.724 135.312 162.812ZM128.438 159.375H87.1875V152.5H128.438V159.375Z" fill="#171717"/>
<path d="M94.0625 173.125C93.1508 173.125 92.2765 173.487 91.6318 174.132C90.9872 174.776 90.625 175.651 90.625 176.562C90.625 177.474 90.9872 178.349 91.6318 178.993C92.2765 179.638 93.1508 180 94.0625 180H121.562C122.474 180 123.349 179.638 123.993 178.993C124.638 178.349 125 177.474 125 176.562C125 175.651 124.638 174.776 123.993 174.132C123.349 173.487 122.474 173.125 121.562 173.125H94.0625Z" fill="#171717"/>
<path d="M70 183.438C69.0883 183.438 68.214 183.8 67.5693 184.444C66.9247 185.089 66.5625 185.963 66.5625 186.875C66.5625 187.787 66.9247 188.661 67.5693 189.306C68.214 189.95 69.0883 190.312 70 190.312H145.625C146.537 190.312 147.411 189.95 148.056 189.306C148.7 188.661 149.062 187.787 149.062 186.875C149.062 185.963 148.7 185.089 148.056 184.444C147.411 183.8 146.537 183.438 145.625 183.438H70Z" fill="#171717"/>
<path d="M131.875 193.75H83.75C82.8383 193.75 81.964 194.112 81.3193 194.757C80.6747 195.401 80.3125 196.276 80.3125 197.188C80.3125 198.099 80.6747 198.974 81.3193 199.618C81.964 200.263 82.8383 200.625 83.75 200.625H131.875C132.787 200.625 133.661 200.263 134.306 199.618C134.95 198.974 135.312 198.099 135.312 197.188C135.312 196.276 134.95 195.401 134.306 194.757C133.661 194.112 132.787 193.75 131.875 193.75Z" fill="#171717"/>
<path d="M220.889 58.1493L210.577 37.5243C210.29 36.9534 209.851 36.4734 209.308 36.138C208.764 35.8026 208.139 35.6249 207.5 35.6249C206.861 35.6249 206.236 35.8026 205.692 36.138C205.149 36.4734 204.71 36.9534 204.423 37.5243L194.111 58.1493C193.874 58.6275 193.75 59.1539 193.75 59.6875V202.344C193.754 205.534 195.022 208.592 197.278 210.847C199.533 213.103 202.591 214.372 205.781 214.375H209.219C212.409 214.372 215.467 213.103 217.722 210.847C219.978 208.592 221.246 205.534 221.25 202.344V59.6875C221.25 59.1539 221.126 58.6275 220.889 58.1493V58.1493ZM214.375 202.344C214.374 203.711 213.83 205.022 212.864 205.989C211.897 206.955 210.586 207.499 209.219 207.5H205.781C204.414 207.499 203.103 206.955 202.136 205.989C201.17 205.022 200.626 203.711 200.625 202.344V193.75H214.375V202.344ZM214.375 186.875H200.625V183.438H214.375V186.875ZM214.375 176.563H200.625V70H214.375V176.563ZM214.375 63.125H200.625V60.4997L207.5 46.7497L214.375 60.4997V63.125Z" fill="#171717"/>
</svg>
