<svg width="250" height="250" viewBox="0 0 250 250" fill="none" xmlns="http://www.w3.org/2000/svg">
<path d="M221.531 118.688L195.656 169.188H40.4062L27.4688 118.688H221.531Z" fill="#F8BF02"/>
<path d="M66.2812 96.5938H92.1562V109.219H66.2812V96.5938Z" fill="#F8BF02"/>
<path d="M56.5781 74.5H75.9844V87.125H56.5781V74.5Z" fill="#F8BF02"/>
<path d="M66.2812 96.5938H92.1562V109.219H66.2812V96.5938Z" fill="#F8BF02"/>
<path d="M134.203 93.4375C133.345 93.4375 132.523 93.77 131.916 94.3619C131.31 94.9539 130.969 95.7567 130.969 96.5938V109.219C130.969 110.056 131.31 110.859 131.916 111.451C132.523 112.042 133.345 112.375 134.203 112.375C135.061 112.375 135.884 112.042 136.49 111.451C137.097 110.859 137.438 110.056 137.438 109.219V96.5938C137.438 95.7567 137.097 94.9539 136.49 94.3619C135.884 93.77 135.061 93.4375 134.203 93.4375Z" fill="#171717"/>
<path d="M124.5 93.4375C123.642 93.4375 122.82 93.77 122.213 94.3619C121.606 94.9539 121.266 95.7567 121.266 96.5938V109.219C121.266 110.056 121.606 110.859 122.213 111.451C122.82 112.042 123.642 112.375 124.5 112.375C125.358 112.375 126.18 112.042 126.787 111.451C127.394 110.859 127.734 110.056 127.734 109.219V96.5938C127.734 95.7567 127.394 94.9539 126.787 94.3619C126.18 93.77 125.358 93.4375 124.5 93.4375Z" fill="#171717"/>
<path d="M143.906 93.4375C143.048 93.4375 142.226 93.77 141.619 94.3619C141.013 94.9539 140.672 95.7567 140.672 96.5938V109.219C140.672 110.056 141.013 110.859 141.619 111.451C142.226 112.042 143.048 112.375 143.906 112.375C144.764 112.375 145.587 112.042 146.193 111.451C146.8 110.859 147.141 110.056 147.141 109.219V96.5938C147.141 95.7567 146.8 94.9539 146.193 94.3619C145.587 93.77 144.764 93.4375 143.906 93.4375Z" fill="#171717"/>
<path d="M179.484 93.4375C178.627 93.4375 177.804 93.77 177.197 94.3619C176.591 94.9539 176.25 95.7567 176.25 96.5938V109.219C176.25 110.056 176.591 110.859 177.197 111.451C177.804 112.042 178.627 112.375 179.484 112.375C180.342 112.375 181.165 112.042 181.771 111.451C182.378 110.859 182.719 110.056 182.719 109.219V96.5938C182.719 95.7567 182.378 94.9539 181.771 94.3619C181.165 93.77 180.342 93.4375 179.484 93.4375Z" fill="#171717"/>
<path d="M169.781 93.4375C168.923 93.4375 168.101 93.77 167.494 94.3619C166.888 94.9539 166.547 95.7567 166.547 96.5938V109.219C166.547 110.056 166.888 110.859 167.494 111.451C168.101 112.042 168.923 112.375 169.781 112.375C170.639 112.375 171.462 112.042 172.068 111.451C172.675 110.859 173.016 110.056 173.016 109.219V96.5938C173.016 95.7567 172.675 94.9539 172.068 94.3619C171.462 93.77 170.639 93.4375 169.781 93.4375Z" fill="#171717"/>
<path d="M189.188 112.375C190.045 112.375 190.868 112.042 191.475 111.451C192.081 110.859 192.422 110.056 192.422 109.219V96.5938C192.422 95.7567 192.081 94.9539 191.475 94.3619C190.868 93.77 190.045 93.4375 189.188 93.4375C188.33 93.4375 187.507 93.77 186.9 94.3619C186.294 94.9539 185.953 95.7567 185.953 96.5938V109.219C185.953 110.056 186.294 110.859 186.9 111.451C187.507 112.042 188.33 112.375 189.188 112.375Z" fill="#171717"/>
<path d="M160.078 80.8125C160.936 80.8125 161.759 80.48 162.365 79.8881C162.972 79.2961 163.312 78.4933 163.312 77.6562V65.0312C163.312 64.1942 162.972 63.3914 162.365 62.7994C161.759 62.2075 160.936 61.875 160.078 61.875C159.22 61.875 158.398 62.2075 157.791 62.7994C157.185 63.3914 156.844 64.1942 156.844 65.0312V77.6562C156.844 78.4933 157.185 79.2961 157.791 79.8881C158.398 80.48 159.22 80.8125 160.078 80.8125Z" fill="#171717"/>
<path d="M150.375 61.875C149.517 61.875 148.695 62.2075 148.088 62.7994C147.481 63.3914 147.141 64.1942 147.141 65.0312V77.6562C147.141 78.4933 147.481 79.2961 148.088 79.8881C148.695 80.48 149.517 80.8125 150.375 80.8125C151.233 80.8125 152.055 80.48 152.662 79.8881C153.269 79.2961 153.609 78.4933 153.609 77.6562V65.0312C153.609 64.1942 153.269 63.3914 152.662 62.7994C152.055 62.2075 151.233 61.875 150.375 61.875Z" fill="#171717"/>
<path d="M169.781 80.8125C170.639 80.8125 171.462 80.48 172.068 79.8881C172.675 79.2961 173.016 78.4933 173.016 77.6562V65.0312C173.016 64.1942 172.675 63.3914 172.068 62.7994C171.462 62.2075 170.639 61.875 169.781 61.875C168.923 61.875 168.101 62.2075 167.494 62.7994C166.888 63.3914 166.547 64.1942 166.547 65.0312V77.6562C166.547 78.4933 166.888 79.2961 167.494 79.8881C168.101 80.48 168.923 80.8125 169.781 80.8125Z" fill="#171717"/>
<path d="M221.531 166.031H200.888L224.426 120.1C224.672 119.618 224.788 119.084 224.763 118.546C224.737 118.009 224.572 117.487 224.282 117.029C223.992 116.572 223.587 116.194 223.106 115.932C222.625 115.67 222.083 115.532 221.531 115.531H205.359V87.125C205.359 86.2879 205.019 85.4851 204.412 84.8932C203.805 84.3013 202.983 83.9688 202.125 83.9688H185.953V55.5625C185.953 54.7254 185.612 53.9226 185.006 53.3307C184.399 52.7388 183.577 52.4062 182.719 52.4062H137.437C136.58 52.4062 135.757 52.7388 135.15 53.3307C134.544 53.9226 134.203 54.7254 134.203 55.5625V83.9688H111.562C110.705 83.9688 109.882 84.3013 109.275 84.8932C108.669 85.4851 108.328 86.2879 108.328 87.125V115.531H95.3906V87.125C95.3906 86.2879 95.0499 85.4851 94.4433 84.8932C93.8367 84.3013 93.0141 83.9688 92.1562 83.9688H79.2187V74.5C79.2187 73.6629 78.878 72.8601 78.2714 72.2682C77.6649 71.6763 76.8422 71.3438 75.9844 71.3438H66.2812V55.5625C66.2812 54.7254 65.9405 53.9226 65.3339 53.3307C64.7274 52.7388 63.9047 52.4062 63.0469 52.4062C62.1891 52.4062 61.3664 52.7388 60.7598 53.3307C60.1533 53.9226 59.8125 54.7254 59.8125 55.5625V59.926L58.0255 59.0502C57.6454 58.8647 57.2315 58.7541 56.8076 58.7247C56.3836 58.6953 55.9579 58.7476 55.5547 58.8788C54.7404 59.1437 54.0672 59.7134 53.6834 60.4626C53.4933 60.8335 53.3799 61.2374 53.3498 61.6511C53.3197 62.0648 53.3734 62.4803 53.5078 62.8737C53.7792 63.6684 54.363 64.3252 55.1307 64.6998L59.8125 66.9802V71.3438H56.5781C55.7203 71.3438 54.8976 71.6763 54.2911 72.2682C53.6845 72.8601 53.3437 73.6629 53.3437 74.5V83.9688H46.875C46.0172 83.9688 45.1945 84.3013 44.588 84.8932C43.9814 85.4851 43.6406 86.2879 43.6406 87.125V115.531H27.4687C26.9773 115.531 26.4923 115.641 26.0506 115.851C25.6089 116.061 25.2222 116.367 24.9198 116.745C24.6173 117.123 24.4072 117.564 24.3052 118.033C24.2033 118.502 24.2122 118.988 24.3314 119.453L36.2622 166.031H27.4687C26.6109 166.031 25.7883 166.364 25.1817 166.956C24.5751 167.548 24.2344 168.35 24.2344 169.188C24.2344 170.025 24.5751 170.827 25.1817 171.419C25.7883 172.011 26.6109 172.344 27.4687 172.344H221.531C222.389 172.344 223.212 172.011 223.818 171.419C224.425 170.827 224.766 170.025 224.766 169.188C224.766 168.35 224.425 167.548 223.818 166.956C223.212 166.364 222.389 166.031 221.531 166.031V166.031ZM198.891 90.2812V115.531H160.078V90.2812H198.891ZM140.672 58.7188H179.484V83.9688H140.672V58.7188ZM114.797 90.2812H153.609V115.531H114.797V90.2812ZM59.8125 77.6562H72.75V83.9688H59.8125V77.6562ZM50.1094 90.2812H88.9219V93.4375H66.2812C65.4234 93.4375 64.6008 93.77 63.9942 94.3619C63.3876 94.9539 63.0469 95.7567 63.0469 96.5938V109.219C63.0469 110.056 63.3876 110.859 63.9942 111.451C64.6008 112.042 65.4234 112.375 66.2812 112.375H88.9219V115.531H50.1094V90.2812ZM88.9219 99.75V106.062H69.5156V99.75H88.9219ZM193.659 166.031H42.9331L31.6128 121.844H216.3L193.659 166.031Z" fill="#171717"/>
<path d="M69.5156 128.156H43.6406C42.7828 128.156 41.9601 128.489 41.3536 129.081C40.747 129.673 40.4062 130.475 40.4062 131.312C40.4062 132.15 40.747 132.952 41.3536 133.544C41.9601 134.136 42.7828 134.469 43.6406 134.469H69.5156C70.3734 134.469 71.1961 134.136 71.8027 133.544C72.4092 132.952 72.75 132.15 72.75 131.312C72.75 130.475 72.4092 129.673 71.8027 129.081C71.1961 128.489 70.3734 128.156 69.5156 128.156Z" fill="#171717"/>
<path d="M82.4531 128.156H79.2187C78.3609 128.156 77.5383 128.489 76.9317 129.081C76.3251 129.673 75.9844 130.475 75.9844 131.312C75.9844 132.15 76.3251 132.952 76.9317 133.544C77.5383 134.136 78.3609 134.469 79.2187 134.469H82.4531C83.3109 134.469 84.1336 134.136 84.7402 133.544C85.3467 132.952 85.6875 132.15 85.6875 131.312C85.6875 130.475 85.3467 129.673 84.7402 129.081C84.1336 128.489 83.3109 128.156 82.4531 128.156Z" fill="#171717"/>
<path d="M221.531 181.812C217.036 181.812 214.995 180.618 212.412 179.106C209.526 177.415 206.253 175.5 199.966 175.5C193.68 175.5 190.407 177.415 187.52 179.106C184.937 180.618 182.897 181.812 178.402 181.812C173.907 181.812 171.867 180.618 169.285 179.106C166.398 177.415 163.126 175.5 156.84 175.5C150.553 175.5 147.282 177.415 144.395 179.106C141.812 180.618 139.772 181.812 135.277 181.812C130.782 181.812 128.744 180.618 126.161 179.106C123.274 177.415 120.002 175.5 113.716 175.5C107.429 175.5 104.158 177.415 101.271 179.106C98.6885 180.618 96.6488 181.812 92.1562 181.812C87.6637 181.812 85.622 180.618 83.0394 179.106C80.1527 177.415 76.8807 175.5 70.5939 175.5C64.3071 175.5 61.0359 177.415 58.1492 179.106C55.565 180.618 53.5253 181.812 49.0311 181.812C44.537 181.812 42.4961 180.618 39.9138 179.106C37.0271 177.415 33.7552 175.5 27.4688 175.5C26.6109 175.5 25.7883 175.833 25.1817 176.424C24.5751 177.016 24.2344 177.819 24.2344 178.656C24.2344 179.493 24.5751 180.296 25.1817 180.888C25.7883 181.48 26.6109 181.812 27.4688 181.812C31.9633 181.812 34.003 183.007 36.5856 184.519C39.4723 186.21 42.7443 188.125 49.0311 188.125C55.3179 188.125 58.5891 186.21 61.4758 184.519C64.0576 183.007 66.0981 181.812 70.5923 181.812C75.0864 181.812 77.1269 183.007 79.7096 184.519C82.5962 186.21 85.8682 188.125 92.1546 188.125C98.441 188.125 101.713 186.21 104.599 184.519C107.182 183.007 109.222 181.812 113.716 181.812C118.21 181.812 120.25 183.007 122.833 184.519C125.72 186.21 128.991 188.125 135.277 188.125C141.563 188.125 144.836 186.21 147.723 184.519C150.305 183.007 152.345 181.812 156.84 181.812C161.334 181.812 163.374 183.007 165.957 184.519C168.844 186.21 172.115 188.125 178.402 188.125C184.688 188.125 187.961 186.21 190.848 184.519C193.431 183.007 195.471 181.812 199.966 181.812C204.462 181.812 206.502 183.007 209.085 184.519C211.972 186.21 215.244 188.125 221.531 188.125C222.389 188.125 223.212 187.792 223.818 187.201C224.425 186.609 224.766 185.806 224.766 184.969C224.766 184.132 224.425 183.329 223.818 182.737C223.212 182.145 222.389 181.812 221.531 181.812V181.812Z" fill="#171717"/>
<path d="M221.531 194.438C217.036 194.438 214.995 193.243 212.412 191.731C209.526 190.04 206.253 188.125 199.966 188.125C193.68 188.125 190.407 190.04 187.52 191.731C184.937 193.243 182.897 194.438 178.402 194.438C173.907 194.438 171.867 193.243 169.285 191.731C166.398 190.04 163.126 188.125 156.84 188.125C150.553 188.125 147.282 190.04 144.395 191.731C141.812 193.243 139.772 194.438 135.277 194.438C130.782 194.438 128.744 193.243 126.161 191.731C123.274 190.04 120.002 188.125 113.716 188.125C107.429 188.125 104.158 190.04 101.271 191.731C98.6885 193.243 96.6488 194.438 92.1562 194.438C87.6637 194.438 85.622 193.243 83.0394 191.731C80.1527 190.04 76.8807 188.125 70.5939 188.125C64.3071 188.125 61.0359 190.04 58.1492 191.731C55.565 193.243 53.5253 194.438 49.0311 194.438C44.537 194.438 42.4961 193.243 39.9138 191.731C37.0271 190.04 33.7552 188.125 27.4688 188.125C26.6109 188.125 25.7883 188.458 25.1817 189.049C24.5751 189.641 24.2344 190.444 24.2344 191.281C24.2344 192.118 24.5751 192.921 25.1817 193.513C25.7883 194.105 26.6109 194.438 27.4688 194.438C31.9633 194.438 34.003 195.632 36.5856 197.144C39.4723 198.835 42.7443 200.75 49.0311 200.75C55.3179 200.75 58.5891 198.835 61.4758 197.144C64.0576 195.632 66.0981 194.438 70.5923 194.438C75.0864 194.438 77.1269 195.632 79.7096 197.144C82.5962 198.835 85.8682 200.75 92.1546 200.75C98.441 200.75 101.713 198.835 104.599 197.144C107.182 195.632 109.222 194.438 113.716 194.438C118.21 194.438 120.25 195.632 122.833 197.144C125.72 198.835 128.991 200.75 135.277 200.75C141.563 200.75 144.836 198.835 147.723 197.144C150.305 195.632 152.345 194.438 156.84 194.438C161.334 194.438 163.374 195.632 165.957 197.144C168.844 198.835 172.115 200.75 178.402 200.75C184.688 200.75 187.961 198.835 190.848 197.144C193.431 195.632 195.471 194.438 199.966 194.438C204.462 194.438 206.502 195.632 209.085 197.144C211.972 198.835 215.244 200.75 221.531 200.75C222.389 200.75 223.212 200.417 223.818 199.826C224.425 199.234 224.766 198.431 224.766 197.594C224.766 196.757 224.425 195.954 223.818 195.362C223.212 194.77 222.389 194.438 221.531 194.438V194.438Z" fill="#171717"/>
</svg>
