<svg width="250" height="250" viewBox="0 0 250 250" fill="none" xmlns="http://www.w3.org/2000/svg">
<path d="M172.688 46.6562V114.781L148.844 101.156L125 114.781V46.6562H70.5V121.479L79.5862 112.239C80.2188 111.607 80.9699 111.105 81.7966 110.762C82.6232 110.42 83.5092 110.244 84.4039 110.244C85.2986 110.244 86.1846 110.42 87.0112 110.762C87.8378 111.105 88.5889 111.607 89.2216 112.239C89.8543 112.872 90.3561 113.623 90.6985 114.45C91.0409 115.276 91.2172 116.162 91.2172 117.057C91.2172 117.952 91.0409 118.838 90.6985 119.664C90.3561 120.491 89.8543 121.242 89.2216 121.875L83.0265 128.406H121.594C123.401 128.406 125.133 129.124 126.411 130.402C127.689 131.679 128.406 133.412 128.406 135.219C128.406 137.026 127.689 138.758 126.411 140.036C125.133 141.314 123.401 142.031 121.594 142.031H135.219C137.026 142.031 138.758 142.749 140.036 144.027C141.314 145.304 142.031 147.037 142.031 148.844C142.031 150.651 141.314 152.383 140.036 153.661C138.758 154.939 137.026 155.656 135.219 155.656H121.594C123.401 155.656 125.133 156.374 126.411 157.652C127.689 158.929 128.406 160.662 128.406 162.469C128.406 164.276 127.689 166.008 126.411 167.286C125.133 168.564 123.401 169.281 121.594 169.281H114.781C116.588 169.281 118.321 169.999 119.598 171.277C120.876 172.554 121.594 174.287 121.594 176.094C121.594 177.901 120.876 179.633 119.598 180.911C118.321 182.189 116.588 182.906 114.781 182.906H70.5V203.344H227.188V46.6562H172.688ZM213.562 189.719H169.281V165.875H213.562V189.719Z" fill="#F8BF02"/>
<path d="M227.188 43.25H70.5C69.5966 43.25 68.7302 43.6089 68.0914 44.2477C67.4526 44.8865 67.0938 45.7529 67.0938 46.6562V103.055L55.4657 114.781H22.8125C21.9091 114.781 21.0427 115.14 20.4039 115.779C19.7651 116.418 19.4062 117.284 19.4062 118.188V176.094C19.4062 176.997 19.7651 177.864 20.4039 178.502C21.0427 179.141 21.9091 179.5 22.8125 179.5H55.4657L61.2776 185.316C61.9171 185.954 62.7839 186.313 63.6875 186.312H67.0938V203.344C67.0938 204.247 67.4526 205.114 68.0914 205.752C68.7302 206.391 69.5966 206.75 70.5 206.75H227.188C228.091 206.75 228.957 206.391 229.596 205.752C230.235 205.114 230.594 204.247 230.594 203.344V46.6562C230.594 45.7529 230.235 44.8865 229.596 44.2477C228.957 43.6089 228.091 43.25 227.188 43.25ZM128.406 50.0625H169.281V108.91L150.534 98.1971C150.019 97.9041 149.436 97.75 148.844 97.75C148.251 97.75 147.669 97.9041 147.153 98.1971L128.406 108.91V50.0625ZM26.2188 121.594H56.875C57.7786 121.594 58.6454 121.236 59.2849 120.597L67.0938 112.767V120.086L55.4657 131.812H26.2188V121.594ZM65.0968 179.5L59.2849 173.684C58.6454 173.046 57.7786 172.687 56.875 172.688H26.2188V138.625H56.875C57.7786 138.625 58.6454 138.267 59.2849 137.629L81.9961 114.649C82.6348 114.011 83.5009 113.652 84.4039 113.652C85.3069 113.652 86.1729 114.011 86.8117 114.649C87.1284 114.965 87.3799 115.339 87.5516 115.752C87.7233 116.165 87.8119 116.607 87.8123 117.054C87.8127 117.501 87.7249 117.944 87.5539 118.357C87.3829 118.77 87.1322 119.145 86.8159 119.461C86.7947 119.486 86.7734 119.507 86.7521 119.529L80.557 126.06C80.0981 126.543 79.7909 127.15 79.6735 127.806C79.5561 128.462 79.6336 129.138 79.8965 129.75C80.1593 130.362 80.5959 130.884 81.1523 131.251C81.7086 131.617 82.3602 131.813 83.0265 131.812H121.594C122.497 131.812 123.364 132.171 124.002 132.81C124.641 133.449 125 134.315 125 135.219C125 136.122 124.641 136.989 124.002 137.627C123.364 138.266 122.497 138.625 121.594 138.625H94.3438C93.4404 138.625 92.574 138.984 91.9352 139.623C91.2964 140.261 90.9375 141.128 90.9375 142.031C90.9375 142.935 91.2964 143.801 91.9352 144.44C92.574 145.079 93.4404 145.438 94.3438 145.438H135.219C136.122 145.438 136.989 145.796 137.627 146.435C138.266 147.074 138.625 147.94 138.625 148.844C138.625 149.747 138.266 150.614 137.627 151.252C136.989 151.891 136.122 152.25 135.219 152.25H94.3438C93.4404 152.25 92.574 152.609 91.9352 153.248C91.2964 153.886 90.9375 154.753 90.9375 155.656C90.9375 156.56 91.2964 157.426 91.9352 158.065C92.574 158.704 93.4404 159.062 94.3438 159.062H121.594C122.497 159.062 123.364 159.421 124.002 160.06C124.641 160.699 125 161.565 125 162.469C125 163.372 124.641 164.239 124.002 164.877C123.364 165.516 122.497 165.875 121.594 165.875H94.3438C93.4404 165.875 92.574 166.234 91.9352 166.873C91.2964 167.511 90.9375 168.378 90.9375 169.281C90.9375 170.185 91.2964 171.051 91.9352 171.69C92.574 172.329 93.4404 172.688 94.3438 172.688H114.781C115.685 172.688 116.551 173.046 117.19 173.685C117.829 174.324 118.188 175.19 118.188 176.094C118.188 176.997 117.829 177.864 117.19 178.502C116.551 179.141 115.685 179.5 114.781 179.5H65.0968ZM223.781 199.938H73.9062V186.312H114.781C116.448 186.313 118.09 185.905 119.564 185.125C121.037 184.345 122.298 183.216 123.234 181.837C124.171 180.458 124.756 178.871 124.939 177.214C125.121 175.556 124.895 173.88 124.28 172.33C125.636 171.96 126.901 171.314 127.997 170.433C129.092 169.552 129.993 168.455 130.646 167.21C131.298 165.965 131.686 164.599 131.786 163.197C131.887 161.795 131.697 160.388 131.229 159.062H135.219C137.929 159.062 140.528 157.986 142.444 156.069C144.361 154.153 145.438 151.554 145.438 148.844C145.438 146.134 144.361 143.534 142.444 141.618C140.528 139.702 137.929 138.625 135.219 138.625H131.229C131.774 137.084 131.94 135.434 131.715 133.815C131.49 132.196 130.88 130.654 129.937 129.32C128.993 127.985 127.743 126.896 126.291 126.144C124.839 125.393 123.228 125 121.594 125H90.9503L91.6613 124.251C93.5645 122.332 94.6299 119.737 94.6243 117.034C94.6187 114.331 93.5426 111.741 91.6315 109.829C89.7089 107.914 87.1047 106.841 84.391 106.845C81.6773 106.849 79.0762 107.93 77.1592 109.851L73.9062 113.159V50.0625H121.594V114.781C121.593 115.378 121.75 115.965 122.048 116.482C122.345 116.999 122.774 117.429 123.29 117.729C123.806 118.029 124.392 118.187 124.988 118.189C125.585 118.191 126.172 118.037 126.69 117.74L148.844 105.078L170.997 117.74C171.515 118.037 172.102 118.191 172.699 118.189C173.296 118.187 173.882 118.029 174.398 117.729C174.914 117.429 175.342 116.999 175.64 116.482C175.938 115.965 176.094 115.378 176.094 114.781V50.0625H223.781V199.938Z" fill="#171717"/>
<path d="M169.281 162.469C168.378 162.469 167.511 162.828 166.873 163.466C166.234 164.105 165.875 164.972 165.875 165.875V189.719C165.875 190.622 166.234 191.489 166.873 192.127C167.511 192.766 168.378 193.125 169.281 193.125H213.562C214.466 193.125 215.332 192.766 215.971 192.127C216.61 191.489 216.969 190.622 216.969 189.719V165.875C216.969 164.972 216.61 164.105 215.971 163.466C215.332 162.828 214.466 162.469 213.562 162.469H169.281ZM210.156 186.312H172.688V169.281H210.156V186.312Z" fill="#171717"/>
</svg>
